<svg width="698" height="192" viewBox="0 0 698 192" fill="none" xmlns="http://www.w3.org/2000/svg">
<path d="M0.181818 189V2.81818H39.5455V156.545H119.364V189H0.181818ZM261.636 63C260.364 58.5758 258.576 54.6667 256.273 51.2727C253.97 47.8182 251.152 44.9091 247.818 42.5455C244.545 40.1212 240.788 38.2727 236.545 37C232.364 35.7273 227.727 35.0909 222.636 35.0909C213.121 35.0909 204.758 37.4545 197.545 42.1818C190.394 46.9091 184.818 53.7879 180.818 62.8182C176.818 71.7879 174.818 82.7576 174.818 95.7273C174.818 108.697 176.788 119.727 180.727 128.818C184.667 137.909 190.242 144.848 197.455 149.636C204.667 154.364 213.182 156.727 223 156.727C231.909 156.727 239.515 155.152 245.818 152C252.182 148.788 257.03 144.273 260.364 138.455C263.758 132.636 265.455 125.758 265.455 117.818L273.455 119H225.455V89.3636H303.364V112.818C303.364 129.182 299.909 143.242 293 155C286.091 166.697 276.576 175.727 264.455 182.091C252.333 188.394 238.455 191.545 222.818 191.545C205.364 191.545 190.03 187.697 176.818 180C163.606 172.242 153.303 161.242 145.909 147C138.576 132.697 134.909 115.727 134.909 96.0909C134.909 81 137.091 67.5455 141.455 55.7273C145.879 43.8485 152.061 33.7879 160 25.5455C167.939 17.303 177.182 11.0303 187.727 6.72726C198.273 2.42424 209.697 0.27272 222 0.27272C232.545 0.27272 242.364 1.81818 251.455 4.90909C260.545 7.93939 268.606 12.2424 275.636 17.8182C282.727 23.3939 288.515 30.0303 293 37.7273C297.485 45.3636 300.364 53.7879 301.636 63H261.636ZM317.841 35.2727V2.81818H470.75V35.2727H413.75V189H374.841V35.2727H317.841ZM495.932 2.81818H544.477L595.75 127.909H597.932L649.205 2.81818H697.75V189H659.568V67.8182H658.023L609.841 188.091H583.841L535.659 67.3636H534.114V189H495.932V2.81818Z" fill="white"/>
<path d="M0.181818 189H-0.818182V190H0.181818V189ZM0.181818 2.81818V1.81818H-0.818182V2.81818H0.181818ZM39.5455 2.81818H40.5455V1.81818H39.5455V2.81818ZM39.5455 156.545H38.5455V157.545H39.5455V156.545ZM119.364 156.545H120.364V155.545H119.364V156.545ZM119.364 189V190H120.364V189H119.364ZM1.18182 189V2.81818H-0.818182V189H1.18182ZM0.181818 3.81818H39.5455V1.81818H0.181818V3.81818ZM38.5455 2.81818V156.545H40.5455V2.81818H38.5455ZM39.5455 157.545H119.364V155.545H39.5455V157.545ZM118.364 156.545V189H120.364V156.545H118.364ZM119.364 188H0.181818V190H119.364V188ZM261.636 63L260.675 63.2765L260.883 64H261.636V63ZM256.273 51.2727L255.441 51.8274L255.445 51.8342L256.273 51.2727ZM247.818 42.5455L247.223 43.349L247.231 43.3552L247.24 43.3612L247.818 42.5455ZM236.545 37L236.254 37.9567L236.258 37.9578L236.545 37ZM197.545 42.1818L196.997 41.3455L196.994 41.3476L197.545 42.1818ZM180.818 62.8182L181.731 63.2255L181.733 63.2232L180.818 62.8182ZM197.455 149.636L196.901 150.47L196.906 150.473L197.455 149.636ZM245.818 152L246.265 152.894L246.269 152.893L245.818 152ZM260.364 138.455L259.5 137.951L259.496 137.957L260.364 138.455ZM265.455 117.818L265.601 116.829L264.455 116.66V117.818H265.455ZM273.455 119V120L273.601 118.011L273.455 119ZM225.455 119H224.455V120H225.455V119ZM225.455 89.3636V88.3636H224.455V89.3636H225.455ZM303.364 89.3636H304.364V88.3636H303.364V89.3636ZM293 155L293.861 155.509L293.862 155.507L293 155ZM264.455 182.091L264.916 182.978L264.919 182.976L264.455 182.091ZM176.818 180L176.312 180.862L176.315 180.864L176.818 180ZM145.909 147L145.019 147.456L145.022 147.461L145.909 147ZM141.455 55.7273L140.517 55.3782L140.516 55.3809L141.455 55.7273ZM160 25.5455L160.72 26.2392L160.72 26.2392L160 25.5455ZM187.727 6.72726L187.349 5.80138L187.349 5.80138L187.727 6.72726ZM251.455 4.90909L251.133 5.85588L251.138 5.85777L251.455 4.90909ZM275.636 17.8182L275.015 18.6017L275.018 18.6043L275.636 17.8182ZM293 37.7273L292.136 38.2307L292.138 38.2337L293 37.7273ZM301.636 63V64H302.784L302.627 62.8631L301.636 63ZM262.597 62.7235C261.299 58.2101 259.469 54.2025 257.1 50.7112L255.445 51.8342C257.682 55.1308 259.428 58.9414 260.675 63.2765L262.597 62.7235ZM257.105 50.718C254.735 47.1634 251.831 44.1653 248.397 41.7297L247.24 43.3612C250.472 45.6529 253.204 48.473 255.441 51.8274L257.105 50.718ZM248.413 41.7419C245.04 39.243 241.176 37.3452 236.833 36.0422L236.258 37.9578C240.399 39.2002 244.051 40.9994 247.223 43.349L248.413 41.7419ZM236.837 36.0433C232.546 34.7376 227.81 34.0909 222.636 34.0909V36.0909C227.644 36.0909 232.181 36.7169 236.254 37.9567L236.837 36.0433ZM222.636 34.0909C212.947 34.0909 204.389 36.5005 196.997 41.3455L198.094 43.0182C205.126 38.4086 213.295 36.0909 222.636 36.0909V34.0909ZM196.994 41.3476C189.66 46.1956 183.969 53.2353 179.904 62.4132L181.733 63.2232C185.667 54.3405 191.128 47.6226 198.097 43.016L196.994 41.3476ZM179.905 62.4109C175.833 71.5428 173.818 82.6601 173.818 95.7273H175.818C175.818 82.8551 177.804 72.0329 181.731 63.2255L179.905 62.4109ZM173.818 95.7273C173.818 108.793 175.802 119.967 179.81 129.216L181.645 128.421C177.774 119.488 175.818 108.6 175.818 95.7273H173.818ZM179.81 129.216C183.815 138.458 189.506 145.56 196.901 150.469L198.008 148.803C190.979 144.137 185.519 137.36 181.645 128.421L179.81 129.216ZM196.906 150.473C204.303 155.321 213.015 157.727 223 157.727V155.727C213.349 155.727 205.03 153.406 198.003 148.8L196.906 150.473ZM223 157.727C232.024 157.727 239.792 156.131 246.265 152.894L245.371 151.106C239.239 154.172 231.794 155.727 223 155.727V157.727ZM246.269 152.893C252.796 149.598 257.794 144.951 261.231 138.952L259.496 137.957C256.266 143.595 251.568 147.978 245.368 151.107L246.269 152.893ZM261.227 138.958C264.725 132.962 266.455 125.903 266.455 117.818H264.455C264.455 125.612 262.79 132.311 259.5 137.951L261.227 138.958ZM265.308 118.807L273.308 119.989L273.601 118.011L265.601 116.829L265.308 118.807ZM273.455 118H225.455V120H273.455V118ZM226.455 119V89.3636H224.455V119H226.455ZM225.455 90.3636H303.364V88.3636H225.455V90.3636ZM302.364 89.3636V112.818H304.364V89.3636H302.364ZM302.364 112.818C302.364 129.039 298.94 142.917 292.138 154.493L293.862 155.507C300.878 143.567 304.364 129.324 304.364 112.818H302.364ZM292.139 154.491C285.325 166.027 275.948 174.928 263.99 181.206L264.919 182.976C277.204 176.527 286.857 167.367 293.861 155.509L292.139 154.491ZM263.993 181.204C252.034 187.423 238.317 190.545 222.818 190.545V192.545C238.592 192.545 252.633 189.365 264.916 182.978L263.993 181.204ZM222.818 190.545C205.515 190.545 190.36 186.732 177.322 179.136L176.315 180.864C189.7 188.662 205.212 192.545 222.818 192.545V190.545ZM177.325 179.138C164.283 171.48 154.108 160.623 146.797 146.539L145.022 147.461C152.498 161.862 162.93 173.005 176.312 180.862L177.325 179.138ZM146.799 146.544C139.552 132.41 135.909 115.603 135.909 96.0909H133.909C133.909 115.851 137.599 132.984 145.019 147.456L146.799 146.544ZM135.909 96.0909C135.909 81.0954 138.077 67.7614 142.393 56.0736L140.516 55.3809C136.105 67.3295 133.909 80.9046 133.909 96.0909H135.909ZM142.392 56.0763C146.773 44.3122 152.886 34.3727 160.72 26.2392L159.28 24.8517C151.235 33.2031 144.984 43.3848 140.517 55.3782L142.392 56.0763ZM160.72 26.2392C168.563 18.0967 177.689 11.9033 188.105 7.65315L187.349 5.80138C176.674 10.1573 167.315 16.5094 159.28 24.8517L160.72 26.2392ZM188.105 7.65315C198.521 3.40287 209.816 1.27272 222 1.27272V-0.72728C209.578 -0.72728 198.024 1.4456 187.349 5.80138L188.105 7.65315ZM222 1.27272C232.447 1.27272 242.155 2.80348 251.133 5.85586L251.776 3.96232C242.572 0.832868 232.644 -0.72728 222 -0.72728V1.27272ZM251.138 5.85777C260.126 8.85374 268.082 13.1031 275.015 18.6017L276.258 17.0347C269.13 11.3817 260.965 7.02505 251.771 3.9604L251.138 5.85777ZM275.018 18.6043C282.011 24.1031 287.715 30.644 292.136 38.2307L293.864 37.2238C289.315 29.4166 283.443 22.6847 276.254 17.0321L275.018 18.6043ZM292.138 38.2337C296.553 45.7509 299.39 54.0485 300.646 63.1369L302.627 62.8631C301.337 53.5272 298.417 44.9764 293.862 37.2208L292.138 38.2337ZM301.636 62H261.636V64H301.636V62ZM317.841 35.2727H316.841V36.2727H317.841V35.2727ZM317.841 2.81818V1.81818H316.841V2.81818H317.841ZM470.75 2.81818H471.75V1.81818H470.75V2.81818ZM470.75 35.2727V36.2727H471.75V35.2727H470.75ZM413.75 35.2727V34.2727H412.75V35.2727H413.75ZM413.75 189V190H414.75V189H413.75ZM374.841 189H373.841V190H374.841V189ZM374.841 35.2727H375.841V34.2727H374.841V35.2727ZM318.841 35.2727V2.81818H316.841V35.2727H318.841ZM317.841 3.81818H470.75V1.81818H317.841V3.81818ZM469.75 2.81818V35.2727H471.75V2.81818H469.75ZM470.75 34.2727H413.75V36.2727H470.75V34.2727ZM412.75 35.2727V189H414.75V35.2727H412.75ZM413.75 188H374.841V190H413.75V188ZM375.841 189V35.2727H373.841V189H375.841ZM374.841 34.2727H317.841V36.2727H374.841V34.2727ZM495.932 2.81818V1.81818H494.932V2.81818H495.932ZM544.477 2.81818L545.403 2.43892L545.148 1.81818H544.477V2.81818ZM595.75 127.909L594.825 128.288L595.079 128.909H595.75V127.909ZM597.932 127.909V128.909H598.603L598.857 128.288L597.932 127.909ZM649.205 2.81818V1.81818H648.534L648.279 2.43892L649.205 2.81818ZM697.75 2.81818H698.75V1.81818H697.75V2.81818ZM697.75 189V190H698.75V189H697.75ZM659.568 189H658.568V190H659.568V189ZM659.568 67.8182H660.568V66.8182H659.568V67.8182ZM658.023 67.8182V66.8182H657.346L657.094 67.4463L658.023 67.8182ZM609.841 188.091V189.091H610.518L610.769 188.463L609.841 188.091ZM583.841 188.091L582.912 188.462L583.163 189.091H583.841V188.091ZM535.659 67.3636L536.588 66.993L536.337 66.3636H535.659V67.3636ZM534.114 67.3636V66.3636H533.114V67.3636H534.114ZM534.114 189V190H535.114V189H534.114ZM495.932 189H494.932V190H495.932V189ZM495.932 3.81818H544.477V1.81818H495.932V3.81818ZM543.552 3.19744L594.825 128.288L596.675 127.53L545.403 2.43892L543.552 3.19744ZM595.75 128.909H597.932V126.909H595.75V128.909ZM598.857 128.288L650.13 3.19744L648.279 2.43892L597.007 127.53L598.857 128.288ZM649.205 3.81818H697.75V1.81818H649.205V3.81818ZM696.75 2.81818V189H698.75V2.81818H696.75ZM697.75 188H659.568V190H697.75V188ZM660.568 189V67.8182H658.568V189H660.568ZM659.568 66.8182H658.023V68.8182H659.568V66.8182ZM657.094 67.4463L608.913 187.719L610.769 188.463L658.951 68.1901L657.094 67.4463ZM609.841 187.091H583.841V189.091H609.841V187.091ZM584.77 187.72L536.588 66.993L534.73 67.7343L582.912 188.462L584.77 187.72ZM535.659 66.3636H534.114V68.3636H535.659V66.3636ZM533.114 67.3636V189H535.114V67.3636H533.114ZM534.114 188H495.932V190H534.114V188ZM496.932 189V2.81818H494.932V189H496.932Z" fill="black"/>
</svg>
