<svg width="1033" height="256" viewBox="0 0 1033 256" fill="none" xmlns="http://www.w3.org/2000/svg">
<path d="M399.227 114.5H379.318C378.955 111.924 378.212 109.636 377.091 107.636C375.97 105.606 374.53 103.879 372.773 102.455C371.015 101.03 368.985 99.9394 366.682 99.1818C364.409 98.4242 361.939 98.0455 359.273 98.0455C354.455 98.0455 350.258 99.2424 346.682 101.636C343.106 104 340.333 107.455 338.364 112C336.394 116.515 335.409 122 335.409 128.455C335.409 135.091 336.394 140.667 338.364 145.182C340.364 149.697 343.152 153.106 346.727 155.409C350.303 157.712 354.439 158.864 359.136 158.864C361.773 158.864 364.212 158.515 366.455 157.818C368.727 157.121 370.742 156.106 372.5 154.773C374.258 153.409 375.712 151.758 376.864 149.818C378.045 147.879 378.864 145.667 379.318 143.182L399.227 143.273C398.712 147.545 397.424 151.667 395.364 155.636C393.333 159.576 390.591 163.106 387.136 166.227C383.712 169.318 379.621 171.773 374.864 173.591C370.136 175.379 364.788 176.273 358.818 176.273C350.515 176.273 343.091 174.394 336.545 170.636C330.03 166.879 324.879 161.439 321.091 154.318C317.333 147.197 315.455 138.576 315.455 128.455C315.455 118.303 317.364 109.667 321.182 102.545C325 95.4242 330.182 90 336.727 86.2727C343.273 82.5151 350.636 80.6364 358.818 80.6364C364.212 80.6364 369.212 81.3939 373.818 82.9091C378.455 84.4242 382.561 86.6364 386.136 89.5454C389.712 92.4242 392.621 95.9545 394.864 100.136C397.136 104.318 398.591 109.106 399.227 114.5ZM444.523 176.364C437.462 176.364 431.356 174.864 426.205 171.864C421.083 168.833 417.129 164.621 414.341 159.227C411.553 153.803 410.159 147.515 410.159 140.364C410.159 133.152 411.553 126.848 414.341 121.455C417.129 116.03 421.083 111.818 426.205 108.818C431.356 105.788 437.462 104.273 444.523 104.273C451.583 104.273 457.674 105.788 462.795 108.818C467.947 111.818 471.917 116.03 474.705 121.455C477.492 126.848 478.886 133.152 478.886 140.364C478.886 147.515 477.492 153.803 474.705 159.227C471.917 164.621 467.947 168.833 462.795 171.864C457.674 174.864 451.583 176.364 444.523 176.364ZM444.614 161.364C447.826 161.364 450.508 160.455 452.659 158.636C454.811 156.788 456.432 154.273 457.523 151.091C458.644 147.909 459.205 144.288 459.205 140.227C459.205 136.167 458.644 132.545 457.523 129.364C456.432 126.182 454.811 123.667 452.659 121.818C450.508 119.97 447.826 119.045 444.614 119.045C441.371 119.045 438.644 119.97 436.432 121.818C434.25 123.667 432.598 126.182 431.477 129.364C430.386 132.545 429.841 136.167 429.841 140.227C429.841 144.288 430.386 147.909 431.477 151.091C432.598 154.273 434.25 156.788 436.432 158.636C438.644 160.455 441.371 161.364 444.614 161.364ZM491.477 201.182V105.182H510.568V116.909H511.432C512.28 115.03 513.508 113.121 515.114 111.182C516.75 109.212 518.871 107.576 521.477 106.273C524.114 104.939 527.386 104.273 531.295 104.273C536.386 104.273 541.083 105.606 545.386 108.273C549.689 110.909 553.129 114.894 555.705 120.227C558.28 125.53 559.568 132.182 559.568 140.182C559.568 147.97 558.311 154.545 555.795 159.909C553.311 165.242 549.917 169.288 545.614 172.045C541.341 174.773 536.553 176.136 531.25 176.136C527.492 176.136 524.295 175.515 521.659 174.273C519.053 173.03 516.917 171.47 515.25 169.591C513.583 167.682 512.311 165.758 511.432 163.818H510.841V201.182H491.477ZM510.432 140.091C510.432 144.242 511.008 147.864 512.159 150.955C513.311 154.045 514.977 156.455 517.159 158.182C519.341 159.879 521.992 160.727 525.114 160.727C528.265 160.727 530.932 159.864 533.114 158.136C535.295 156.379 536.947 153.955 538.068 150.864C539.22 147.742 539.795 144.152 539.795 140.091C539.795 136.061 539.235 132.515 538.114 129.455C536.992 126.394 535.341 124 533.159 122.273C530.977 120.545 528.295 119.682 525.114 119.682C521.962 119.682 519.295 120.515 517.114 122.182C514.962 123.848 513.311 126.212 512.159 129.273C511.008 132.333 510.432 135.939 510.432 140.091ZM582.182 201.182C579.727 201.182 577.424 200.985 575.273 200.591C573.152 200.227 571.394 199.758 570 199.182L574.364 184.727C576.636 185.424 578.682 185.803 580.5 185.864C582.348 185.924 583.939 185.5 585.273 184.591C586.636 183.682 587.742 182.136 588.591 179.955L589.727 177L564.682 105.182H585.045L599.5 156.455H600.227L614.818 105.182H635.318L608.182 182.545C606.879 186.303 605.106 189.576 602.864 192.364C600.652 195.182 597.848 197.348 594.455 198.864C591.061 200.409 586.97 201.182 582.182 201.182ZM675.216 175V81.9091H694.898V158.773H734.807V175H675.216ZM805.943 112C805.307 109.788 804.413 107.833 803.261 106.136C802.11 104.409 800.701 102.955 799.034 101.773C797.398 100.561 795.519 99.6364 793.398 99C791.307 98.3636 788.989 98.0455 786.443 98.0455C781.686 98.0455 777.504 99.2273 773.898 101.591C770.322 103.955 767.534 107.394 765.534 111.909C763.534 116.394 762.534 121.879 762.534 128.364C762.534 134.848 763.519 140.364 765.489 144.909C767.458 149.455 770.246 152.924 773.852 155.318C777.458 157.682 781.716 158.864 786.625 158.864C791.08 158.864 794.883 158.076 798.034 156.5C801.216 154.894 803.64 152.636 805.307 149.727C807.004 146.818 807.852 143.379 807.852 139.409L811.852 140H787.852V125.182H826.807V136.909C826.807 145.091 825.08 152.121 821.625 158C818.17 163.848 813.413 168.364 807.352 171.545C801.292 174.697 794.352 176.273 786.534 176.273C777.807 176.273 770.14 174.348 763.534 170.5C756.928 166.621 751.777 161.121 748.08 154C744.413 146.848 742.58 138.364 742.58 128.545C742.58 121 743.67 114.273 745.852 108.364C748.064 102.424 751.155 97.3939 755.125 93.2727C759.095 89.1515 763.716 86.0151 768.989 83.8636C774.261 81.7121 779.973 80.6364 786.125 80.6364C791.398 80.6364 796.307 81.4091 800.852 82.9545C805.398 84.4697 809.428 86.6212 812.943 89.4091C816.489 92.197 819.383 95.5151 821.625 99.3636C823.867 103.182 825.307 107.394 825.943 112H805.943ZM834.045 98.1364V81.9091H910.5V98.1364H882V175H862.545V98.1364H834.045ZM923.091 81.9091H947.364L973 144.455H974.091L999.727 81.9091H1024V175H1004.91V114.409H1004.14L980.045 174.545H967.045L942.955 114.182H942.182V175H923.091V81.9091Z" fill="#2F2F2F"/>
<circle cx="128" cy="128" r="128" fill="#238636"/>
<path d="M197.36 82.64C199.045 84.3275 199.992 86.615 199.992 89C199.992 91.385 199.045 93.6725 197.36 95.36L110.36 182.36C108.672 184.045 106.385 184.992 104 184.992C101.615 184.992 99.3274 184.045 97.6399 182.36L58.6399 143.36C57.051 141.653 56.1858 139.396 56.2261 137.064C56.2664 134.733 57.209 132.507 58.8559 130.856C60.5072 129.209 62.7326 128.266 65.0644 128.226C67.3962 128.186 69.6528 129.051 71.3599 130.64L104 163.28L184.64 82.64C186.327 80.9546 188.615 80.0079 191 80.0079C193.385 80.0079 195.672 80.9546 197.36 82.64Z" fill="white"/>
</svg>
